<?xml version="1.0" encoding="UTF-8" standalone="no"?>
<!-- Creator: CorelDRAW X6 -->

<svg
   xmlns:dc="http://purl.org/dc/elements/1.1/"
   xmlns:cc="http://creativecommons.org/ns#"
   xmlns:rdf="http://www.w3.org/1999/02/22-rdf-syntax-ns#"
   xmlns:svg="http://www.w3.org/2000/svg"
   xmlns="http://www.w3.org/2000/svg"
   xmlns:sodipodi="http://sodipodi.sourceforge.net/DTD/sodipodi-0.dtd"
   xmlns:inkscape="http://www.inkscape.org/namespaces/inkscape"
   xml:space="preserve"
   width="54.07mm"
   height="26.789999mm"
   version="1.1"
   style="clip-rule:evenodd;fill-rule:evenodd;image-rendering:optimizeQuality;shape-rendering:geometricPrecision;text-rendering:geometricPrecision"
   viewBox="0 0 5407 2678.9999"
   id="svg3787"
   sodipodi:docname="logo.svg"
   inkscape:version="0.92.4 5da689c313, 2019-01-14"><metadata
   id="metadata3791"><rdf:RDF><cc:Work
       rdf:about=""><dc:format>image/svg+xml</dc:format><dc:type
         rdf:resource="http://purl.org/dc/dcmitype/StillImage" /></cc:Work></rdf:RDF></metadata><sodipodi:namedview
   pagecolor="#ffffff"
   bordercolor="#666666"
   borderopacity="1"
   objecttolerance="10"
   gridtolerance="10"
   guidetolerance="10"
   inkscape:pageopacity="0"
   inkscape:pageshadow="2"
   inkscape:window-width="1920"
   inkscape:window-height="1025"
   id="namedview3789"
   showgrid="false"
   inkscape:zoom="0.75366162"
   inkscape:cx="163.08661"
   inkscape:cy="-135.72284"
   inkscape:window-x="1366"
   inkscape:window-y="0"
   inkscape:window-maximized="1"
   inkscape:current-layer="svg3787" />
 <defs
   id="defs3782">
  <style
   type="text/css"
   id="style3780">
   <![CDATA[
    .fil0 {fill:#D5292D}
   ]]>
  </style>
 </defs>
 <g
   id="Layer_x0020_3"
   transform="translate(-6185,-8580)">
  <metadata
   id="CorelCorpID_0Corel-Layer" />
  <path
   id="Backup_of_Moje_x0020_logo.CDR"
   class="fil0"
   d="m 9346,8807 c 261,-35 530,-71 807,-108 287,-38 583,-78 889,-119 2,133 4,276 6,430 2,168 5,350 7,548 -126,10 -249,19 -371,28 12,-167 23,-321 33,-466 10,-135 19,-261 29,-379 -260,33 -513,65 -758,96 -239,30 -471,59 -697,88 19,-40 37,-80 56,-119 z m -56,119 c -220,28 -435,55 -644,82 -204,26 -402,51 -596,76 -81,110 -167,226 -257,349 -96,130 -197,268 -305,415 221,-19 448,-39 683,-58 243,-20 493,-41 753,-62 70,-156 136,-302 198,-438 59,-128 115,-249 167,-363 z m -1025,2333 c -389,-4 -760,-8 -1113,-12 -337,-4 -659,-7 -967,-10 218,-279 417,-534 599,-769 168,-215 323,-415 467,-600 78,-7 157,-13 237,-20 -115,157 -238,324 -368,503 -140,192 -291,398 -453,621 261,-2 531,-5 812,-8 292,-3 596,-5 912,-8 -41,98 -83,199 -126,303 z m 126,-303 c 329,-3 672,-5 1030,-8 373,-3 764,-5 1174,-8 17,-279 33,-534 49,-765 14,-212 28,-408 40,-589 -321,25 -630,49 -927,73 -287,23 -564,45 -832,67 -75,168 -155,348 -240,542 -91,210 -189,438 -294,687 z m -658,-1183 18,19 c -26,28 -42,52 -49,70 -7,18 -11,45 -11,82 v 451 c 0,46 4,75 12,87 8,12 18,18 31,18 10,0 25,-9 45,-27 l 17,23 -141,111 c -34,-17 -57,-37 -69,-59 -12,-22 -18,-61 -18,-118 v -557 l -98,-75 -39,25 v 289 h 71 l -71,87 v 245 l 45,-37 18,19 -216,181 c -33,-39 -59,-67 -79,-85 -15,-13 -32,-24 -53,-35 v -21 c 18,-6 30,-16 36,-30 4,-10 6,-34 6,-71 v -165 h -176 v 251 c 0,69 -18,122 -53,160 -35,37 -81,56 -138,56 -13,0 -35,-2 -66,-7 -22,-3 -38,-5 -47,-5 -20,0 -34,4 -44,13 -9,9 -14,24 -14,46 h -23 c -5,-17 -7,-31 -7,-42 0,-21 5,-41 16,-59 11,-19 25,-32 44,-41 14,-7 40,-12 77,-16 37,-4 65,-15 83,-35 18,-20 27,-48 27,-83 0,-55 -13,-101 -39,-137 -26,-36 -57,-54 -94,-54 -29,0 -53,14 -71,41 l -21,-9 c 11,-29 23,-51 36,-66 14,-16 32,-28 56,-37 17,-7 42,-10 75,-11 0,-12 -1,-20 -1,-26 0,-65 13,-120 40,-165 26,-45 68,-86 123,-123 56,-37 136,-80 240,-126 37,20 62,40 75,59 13,20 20,49 22,86 l 228,-146 140,104 55,-54 z m -542,338 v -174 c 0,-42 -5,-73 -16,-92 -11,-19 -30,-34 -58,-46 -27,14 -46,26 -57,37 -15,16 -26,35 -34,57 -7,22 -11,54 -11,95 v 185 l 48,-63 h 128 z m 216,-272 -97,63 v 209 h 97 z m -397,21 c -34,26 -56,52 -66,76 -10,24 -15,65 -15,125 v 330 c 0,54 -7,92 -21,114 -14,22 -40,41 -80,56 18,1 32,2 44,2 29,0 52,-5 70,-15 18,-10 30,-22 36,-37 6,-15 8,-40 8,-77 v -439 c 0,-33 2,-61 6,-83 3,-14 8,-31 17,-51 z m 397,338 h -97 v 151 c 0,52 4,85 11,100 11,25 26,38 45,38 10,0 24,-8 41,-23 z m 774,-214 88,105 -88,78 -73,-93 -58,53 v 340 l 66,48 60,-48 13,19 -149,120 c -32,-28 -59,-49 -80,-61 -21,-12 -45,-22 -71,-29 v -13 c 17,-12 28,-24 33,-36 5,-12 8,-36 8,-70 v -238 c 0,-30 -3,-50 -10,-60 -7,-10 -14,-15 -22,-15 -9,0 -20,8 -36,23 l -14,-17 121,-105 c 33,25 55,47 67,66 8,12 12,28 12,48 l 131,-114 z m 212,621 -89,-89 89,-89 89,89 z m 494,-865 h 27 c 6,19 17,33 31,41 19,11 49,16 91,16 27,0 112,-3 255,-8 87,-3 141,-5 162,-5 64,0 119,11 165,33 45,22 82,56 110,102 28,46 47,109 56,189 7,56 12,180 17,372 -76,48 -134,89 -175,124 -124,-35 -233,-52 -327,-52 -64,0 -124,8 -178,23 -55,15 -113,40 -174,74 l -17,-22 c 80,-41 150,-83 210,-126 60,-43 100,-82 119,-116 19,-34 29,-77 29,-130 0,-19 0,-47 -1,-85 -1,-26 -1,-53 -1,-81 0,-49 3,-86 9,-109 6,-23 18,-50 36,-80 h -15 c -48,27 -79,52 -95,74 -16,22 -24,51 -24,86 l 5,207 c 0,55 -17,104 -50,148 -33,44 -112,107 -238,189 l -17,-23 c 63,-44 105,-81 125,-109 20,-28 30,-58 30,-89 0,-27 -9,-50 -26,-68 -17,-19 -36,-28 -56,-28 -11,0 -20,3 -29,9 -9,6 -21,18 -36,36 l -19,-19 c 13,-33 31,-58 53,-73 22,-16 48,-23 79,-23 9,0 19,1 29,3 11,2 22,5 35,9 -1,-23 -1,-42 -1,-59 0,-61 12,-111 37,-149 25,-38 72,-78 142,-120 -64,7 -119,10 -166,10 -49,0 -92,-7 -127,-21 -26,-11 -46,-28 -58,-52 -12,-24 -20,-57 -22,-98 z m 472,161 c -17,28 -28,53 -34,74 -8,29 -12,56 -12,80 l 5,230 c 0,30 -7,60 -22,90 -11,23 -32,51 -63,84 57,-9 100,-14 130,-13 l 33,1 v -545 h -37 z m 66,224 c 24,17 44,28 62,34 18,6 37,9 57,9 20,0 40,-3 58,-10 18,-7 39,-18 63,-34 -7,-87 -30,-147 -68,-177 -38,-31 -95,-46 -172,-46 z m 0,192 c 26,-15 49,-26 68,-31 19,-6 39,-9 61,-9 21,0 41,3 59,8 18,5 40,15 66,29 l -10,-158 c -25,15 -46,26 -64,31 -18,6 -38,9 -59,9 -21,0 -41,-3 -61,-10 -20,-7 -40,-17 -59,-30 v 160 z m 0,131 c 47,4 86,9 116,14 30,6 76,17 140,35 1,-59 1,-89 1,-91 0,-5 0,-23 -1,-56 -25,-17 -47,-29 -66,-36 -19,-7 -39,-10 -61,-10 -22,0 -43,3 -63,10 -19,7 -41,19 -66,36 v 97 z m 741,-465 164,192 -261,183 v 106 l 135,54 91,-62 13,18 -189,132 c -39,-21 -70,-35 -95,-44 -25,-9 -60,-18 -106,-28 v -15 c 13,-8 22,-17 26,-29 5,-12 7,-36 7,-74 v -334 c 37,-13 67,-25 91,-36 18,-8 58,-29 123,-62 z m -89,67 -8,4 v 264 l 153,-107 z m 497,-67 151,86 -62,92 -114,-66 v 371 l 114,52 61,-44 6,25 -144,106 c -37,-21 -69,-36 -96,-46 -26,-10 -59,-19 -97,-26 v -14 c 14,-9 23,-19 27,-30 6,-15 9,-39 9,-71 v -332 c 49,-22 97,-56 144,-102 z m 625,25 21,8 c -21,33 -34,58 -40,75 -6,17 -8,41 -8,70 v 248 c 0,41 3,67 9,77 6,10 13,16 21,16 4,0 9,-1 13,-3 3,-2 11,-8 25,-20 l 14,18 -124,107 c -30,-23 -50,-44 -60,-63 -10,-19 -16,-44 -17,-77 l -177,140 c -66,-55 -100,-108 -100,-161 0,-35 7,-69 21,-100 19,-41 52,-88 99,-143 l -70,-149 8,-17 c 15,2 26,2 34,2 46,0 86,-18 121,-55 28,17 59,30 93,40 34,10 59,15 77,15 8,0 14,-1 19,-4 4,-3 11,-12 21,-26 z m -147,111 -199,-61 71,150 128,60 z m 0,173 -141,-66 c -22,48 -33,89 -33,125 0,63 28,115 86,156 l 88,-71 z m 517,-523 v 15 c -31,16 -52,35 -65,59 -13,23 -19,58 -19,105 v 518 l 66,50 26,-21 15,21 -116,89 c -35,-31 -62,-51 -79,-61 -18,-10 -41,-19 -69,-27 v -13 c 11,-7 19,-15 25,-25 6,-10 10,-22 13,-36 1,-5 1,-28 2,-70 v -416 c 0,-35 -1,-60 -4,-74 -3,-14 -8,-27 -16,-40 -8,-13 -22,-27 -41,-42 l 9,-12 c 35,10 67,31 95,62 29,-31 56,-52 79,-63 23,-11 51,-18 81,-19 z"
   inkscape:connector-curvature="0"
   style="fill:#d5292d" />
 </g>
</svg>